<svg viewBox="0 0 64 64" xmlns="http://www.w3.org/2000/svg">
  {/* 背景圆 */}
  <circle cx="32" cy="32" r="30" fill="none" stroke="currentColor" stroke-width="2" opacity="0.1"/>
  
  {/* 儿童友好的抽象人物 */}
  <path
    d="M32,16 
       a8,8 0 1,1 0,16
       a8,8 0 1,1 0,-16z
       M24,38
       a16,16 0 0,0 16,0
       a24,8 0 0,1 -16,0z"
    fill="none"
    stroke="currentColor"
    stroke-width="2.5"
    stroke-linecap="round"
  />
  
  {/* 围绕的星星元素 */}
  <path
    d="M20,14 l2,-2 l2,2 l-2,2z
       M44,14 l2,-2 l2,2 l-2,2z
       M16,32 l2,-2 l2,2 l-2,2z
       M44,32 l2,-2 l2,2 l-2,2z
       M24,46 l2,-2 l2,2 l-2,2z
       M36,46 l2,-2 l2,2 l-2,2z"
    fill="currentColor"
  />
</svg>
